# Blender 3.1.0
# www.blender.org
mtllib edge.mtl
o Circle
v -0.500000 0.866025 0.000000
v -0.500000 0.916025 0.000000
v -0.519134 0.912219 0.000000
v -0.535355 0.901381 0.000000
v -0.546194 0.885160 0.000000
v -0.550000 0.866025 0.000000
v -0.546194 0.846891 0.000000
v -0.535355 0.830670 0.000000
v -0.519134 0.819831 0.000000
v -0.500000 0.816025 0.000000
v -0.480866 0.819831 0.000000
v -0.464645 0.830670 0.000000
v -0.453806 0.846891 0.000000
v -0.450000 0.866025 0.000000
v -0.453806 0.885160 0.000000
v -0.464645 0.901381 0.000000
v -0.480866 0.912219 0.000000
v 0.500000 0.866025 0.000000
v 0.500000 0.916025 0.000000
v 0.480866 0.912219 0.000000
v 0.464645 0.901381 0.000000
v 0.453806 0.885160 0.000000
v 0.450000 0.866025 0.000000
v 0.453806 0.846891 0.000000
v 0.464645 0.830670 0.000000
v 0.480866 0.819831 0.000000
v 0.500000 0.816025 0.000000
v 0.519134 0.819831 0.000000
v 0.535355 0.830670 0.000000
v 0.546194 0.846891 0.000000
v 0.550000 0.866025 0.000000
v 0.546194 0.885160 0.000000
v 0.535355 0.901381 0.000000
v 0.519134 0.912219 0.000000
v -0.500000 0.816025 0.000000
v 0.500000 0.816025 0.000000
v -0.500000 0.916025 0.000000
v 0.500000 0.916025 0.000000
vn -0.0000 -0.0000 1.0000
vt 0.500000 0.500000
vt 0.500000 1.000000
vt 0.308658 0.961940
vt 0.146447 0.853553
vt 0.038060 0.691342
vt -0.000000 0.500000
vt 0.038060 0.308658
vt 0.146447 0.146447
vt 0.308658 0.038060
vt 0.500000 -0.000000
vt 0.691342 0.038060
vt 0.853553 0.146447
vt 0.961940 0.308658
vt 1.000000 0.500000
vt 0.961940 0.691342
vt 0.853553 0.853553
vt 0.691342 0.961940
vt 0.500000 0.500000
vt 0.500000 1.000000
vt 0.308658 0.961940
vt 0.146447 0.853553
vt 0.038060 0.691342
vt -0.000000 0.500000
vt 0.038060 0.308658
vt 0.146447 0.146447
vt 0.308658 0.038060
vt 0.500000 -0.000000
vt 0.691342 0.038060
vt 0.853554 0.146447
vt 0.961940 0.308658
vt 1.000000 0.500000
vt 0.961940 0.691342
vt 0.853554 0.853553
vt 0.691342 0.961940
vt 0.000000 0.000000
vt 1.000000 0.000000
vt 0.000000 1.000000
vt 1.000000 1.000000
s 0
f 1/1/1 2/2/1 3/3/1
f 1/1/1 3/3/1 4/4/1
f 1/1/1 4/4/1 5/5/1
f 1/1/1 5/5/1 6/6/1
f 1/1/1 6/6/1 7/7/1
f 1/1/1 7/7/1 8/8/1
f 1/1/1 8/8/1 9/9/1
f 1/1/1 9/9/1 10/10/1
f 1/1/1 10/10/1 11/11/1
f 1/1/1 11/11/1 12/12/1
f 1/1/1 12/12/1 13/13/1
f 1/1/1 13/13/1 14/14/1
f 1/1/1 14/14/1 15/15/1
f 1/1/1 15/15/1 16/16/1
f 1/1/1 16/16/1 17/17/1
f 1/1/1 17/17/1 2/2/1
f 18/18/1 19/19/1 20/20/1
f 18/18/1 20/20/1 21/21/1
f 18/18/1 21/21/1 22/22/1
f 18/18/1 22/22/1 23/23/1
f 18/18/1 23/23/1 24/24/1
f 18/18/1 24/24/1 25/25/1
f 18/18/1 25/25/1 26/26/1
f 18/18/1 26/26/1 27/27/1
f 18/18/1 27/27/1 28/28/1
f 18/18/1 28/28/1 29/29/1
f 18/18/1 29/29/1 30/30/1
f 18/18/1 30/30/1 31/31/1
f 18/18/1 31/31/1 32/32/1
f 18/18/1 32/32/1 33/33/1
f 18/18/1 33/33/1 34/34/1
f 18/18/1 34/34/1 19/19/1
f 36/36/1 37/37/1 35/35/1
f 36/36/1 38/38/1 37/37/1
