# Blender 3.1.0
# www.blender.org
mtllib edge.mtl
o Circle
v -0.500000 0.866025 0.000000
v -0.500000 1.016025 0.000000
v -0.557402 1.004607 0.000000
v -0.606066 0.972091 0.000000
v -0.638582 0.923428 0.000000
v -0.650000 0.866025 0.000000
v -0.638582 0.808623 0.000000
v -0.606066 0.759959 0.000000
v -0.557402 0.727443 0.000000
v -0.500000 0.716025 0.000000
v -0.442597 0.727443 0.000000
v -0.393934 0.759959 0.000000
v -0.361418 0.808623 0.000000
v -0.350000 0.866025 0.000000
v -0.361418 0.923428 0.000000
v -0.393934 0.972091 0.000000
v -0.442597 1.004607 0.000000
vn -0.0000 -0.0000 3.0000
vt 0.500000 0.500000
vt 0.500000 1.000000
vt 0.308658 0.961940
vt 0.146447 0.853553
vt 0.038060 0.691342
vt -0.000000 0.500000
vt 0.038060 0.308658
vt 0.146447 0.146447
vt 0.308658 0.038060
vt 0.500000 -0.000000
vt 0.691342 0.038060
vt 0.853553 0.146447
vt 0.961940 0.308658
vt 1.000000 0.500000
vt 0.961940 0.691342
vt 0.853553 0.853553
vt 0.691342 0.961940
s 0
f 1/1/1 2/2/1 3/3/1
f 1/1/1 3/3/1 4/4/1
f 1/1/1 4/4/1 5/5/1
f 1/1/1 5/5/1 6/6/1
f 1/1/1 6/6/1 7/7/1
f 1/1/1 7/7/1 8/8/1
f 1/1/1 8/8/1 9/9/1
f 1/1/1 9/9/1 10/10/1
f 1/1/1 10/10/1 11/11/1
f 1/1/1 11/11/1 12/12/1
f 1/1/1 12/12/1 13/13/1
f 1/1/1 13/13/1 14/14/1
f 1/1/1 14/14/1 15/15/1
f 1/1/1 15/15/1 16/16/1
f 1/1/1 16/16/1 17/17/1
f 1/1/1 17/17/1 2/2/1
o Circle.001
v 0.500000 0.866025 0.000000
v 0.442597 1.004607 0.000000
v 0.500000 1.016025 0.000000
v 0.393934 0.972091 0.000000
v 0.361418 0.923428 0.000000
v 0.350000 0.866025 0.000000
v 0.361418 0.808623 0.000000
v 0.393934 0.759959 0.000000
v 0.442597 0.727443 0.000000
v 0.500000 0.716025 0.000000
v 0.557402 0.727443 0.000000
v 0.606066 0.759959 0.000000
v 0.638582 0.808623 0.000000
v 0.650000 0.866025 0.000000
v 0.638582 0.923428 0.000000
v 0.606066 0.972091 0.000000
v 0.557402 1.004607 0.000000
vn -0.0000 -0.0000 3.0000
vt 0.500000 0.500000
vt 0.308658 0.961940
vt 0.500000 1.000000
vt 0.146447 0.853553
vt 0.038060 0.691342
vt -0.000000 0.500000
vt 0.038060 0.308658
vt 0.146447 0.146447
vt 0.308658 0.038060
vt 0.500000 -0.000000
vt 0.691342 0.038060
vt 0.853554 0.146447
vt 0.961940 0.308658
vt 1.000000 0.500000
vt 0.961940 0.691342
vt 0.853554 0.853553
vt 0.691342 0.961940
s 0
f 18/18/2 19/19/2 21/21/2
f 18/18/2 20/20/2 19/19/2
f 18/18/2 34/34/2 20/20/2
f 18/18/2 21/21/2 22/22/2
f 18/18/2 22/22/2 23/23/2
f 18/18/2 23/23/2 24/24/2
f 18/18/2 24/24/2 25/25/2
f 18/18/2 25/25/2 26/26/2
f 18/18/2 26/26/2 27/27/2
f 18/18/2 27/27/2 28/28/2
f 18/18/2 28/28/2 29/29/2
f 18/18/2 29/29/2 30/30/2
f 18/18/2 30/30/2 31/31/2
f 18/18/2 31/31/2 32/32/2
f 18/18/2 32/32/2 33/33/2
f 18/18/2 33/33/2 34/34/2
o Circle.002
v -0.500000 0.716025 0.000000
v -0.500000 1.016026 0.000000
v 0.500000 0.716025 0.000000
v 0.500000 1.016026 0.000000
vn -0.0000 -0.0000 1.0000
vt 0.000000 0.000000
vt 0.000000 1.000000
vt 1.000000 0.000000
vt 1.000000 1.000000
s 0
f 37/37/3 36/36/3 35/35/3
f 37/37/3 38/38/3 36/36/3
